<svg width="91" height="109" viewBox="0 0 91 109" fill="none" xmlns="http://www.w3.org/2000/svg">
<path d="M21.169 23.6594C21.169 20.3865 21.7904 17.3108 23.0334 14.4323C24.2763 11.5537 25.9616 9.04973 28.0894 6.92038C30.2171 4.79104 32.7211 3.1057 35.6012 1.86437C38.4814 0.623035 41.5571 0.00158029 44.8284 2.99486e-06C48.0997 -0.0015743 51.1755 0.61988 54.0556 1.86437C56.9357 3.10885 59.4397 4.79419 61.5675 6.92038C63.6952 9.04658 65.3806 11.5505 66.6235 14.4323C67.8664 17.314 68.4878 20.3897 68.4878 23.6594C68.4878 26.9292 67.8664 30.0049 66.6235 32.8866C65.3806 35.7683 63.6952 38.2723 61.5675 40.3985C59.4397 42.5247 56.9357 44.2108 54.0556 45.4569C51.1755 46.7029 48.0997 47.3236 44.8284 47.3188C41.5571 47.3141 38.4814 46.6927 35.6012 45.4545C32.7211 44.2163 30.2171 42.531 28.0894 40.3985C25.9616 38.266 24.2755 35.762 23.031 32.8866C21.7865 30.0112 21.1658 26.9355 21.169 23.6594ZM25.9009 23.6594C25.9009 28.9434 27.7345 33.4189 31.4017 37.0861C35.0689 40.7534 39.5445 42.587 44.8284 42.587C50.1124 42.587 54.5879 40.7534 58.2551 37.0861C61.9224 33.4189 63.756 28.9434 63.756 23.6594C63.756 18.3755 61.9224 13.8999 58.2551 10.2327C54.5879 6.56549 50.1124 4.73189 44.8284 4.73189C39.5445 4.73189 35.0689 6.56549 31.4017 10.2327C27.7345 13.8999 25.9009 18.3755 25.9009 23.6594Z" fill="#00809D"/>
<path d="M44.8284 43.5832C42.0723 43.5832 39.4822 43.0598 37.0582 42.0132C34.6341 40.9665 32.5255 39.5473 30.7324 37.7555C28.9393 35.9637 27.52 33.8551 26.4747 31.4297C25.4294 29.0043 24.906 26.4142 24.9047 23.6594C24.9034 20.9046 25.4267 18.3146 26.4747 15.8892C27.5227 13.4638 28.9419 11.3552 30.7324 9.56339C32.5229 7.77158 34.6315 6.35235 37.0582 5.30569C39.4849 4.25903 42.075 3.7357 44.8284 3.7357C47.5819 3.7357 50.172 4.25903 52.5987 5.30569C55.0254 6.35235 57.134 7.77158 58.9245 9.56339C60.7149 11.3552 62.1348 13.4638 63.1841 15.8892C64.2335 18.3146 64.7561 20.9046 64.7521 23.6594C64.7482 26.4142 64.2248 29.0043 63.1822 31.4297C62.1395 33.8551 60.7202 35.9637 58.9245 37.7555C57.1287 39.5473 55.0201 40.9672 52.5987 42.0152C50.1773 43.0631 47.5872 43.5858 44.8284 43.5832ZM44.8284 39.5984C49.2781 39.5984 53.047 38.0543 56.1351 34.9661C59.2233 31.878 60.7674 28.1091 60.7674 23.6594C60.7674 19.2098 59.2233 15.4409 56.1351 12.3527C53.047 9.26453 49.2781 7.72045 44.8284 7.72045C40.3788 7.72045 36.6099 9.26453 33.5217 12.3527C30.4335 15.4409 28.8894 19.2098 28.8894 23.6594C28.8894 28.1091 30.4335 31.878 33.5217 34.9661C36.6099 38.0543 40.3788 39.5984 44.8284 39.5984Z" fill="#00809D"/>
<path fill-rule="evenodd" clip-rule="evenodd" d="M37.1545 63.6973L17.2081 83.6436C16.1497 84.7021 15.5551 86.1376 15.5551 87.6344C15.5551 89.1313 16.1497 90.5668 17.2081 91.6252C18.2665 92.6836 19.7021 93.2782 21.1989 93.2782C22.6957 93.2782 24.1313 92.6836 25.1897 91.6252L45.1361 71.6713L65.0824 91.6214C65.6065 92.1453 66.2286 92.5607 66.9133 92.8441C67.5979 93.1275 68.3317 93.2733 69.0727 93.2731C69.8136 93.273 70.5473 93.1268 71.2318 92.8431C71.9163 92.5594 72.5383 92.1436 73.0621 91.6196C73.5859 91.0955 74.0014 90.4734 74.2848 89.7887C74.5682 89.1041 74.714 88.3703 74.7138 87.6293C74.7136 86.8883 74.5675 86.1547 74.2838 85.4701C74.0001 84.7856 73.5843 84.1637 73.0602 83.6399L53.1138 63.6973L73.0602 43.7509C73.5993 43.2307 74.0294 42.6084 74.3254 41.9202C74.6215 41.232 74.7774 40.4917 74.7843 39.7426C74.7912 38.9934 74.6488 38.2504 74.3654 37.5569C74.0821 36.8634 73.6634 36.2333 73.1339 35.7033C72.6044 35.1733 71.9747 34.7541 71.2814 34.47C70.5882 34.186 69.8453 34.0429 69.0962 34.0491C68.347 34.0552 67.6066 34.2105 66.9182 34.5059C66.2297 34.8012 65.6069 35.2308 65.0862 35.7694L45.1361 55.7233L25.1859 35.7731C24.6652 35.2345 24.0424 34.805 23.354 34.5096C22.6655 34.2143 21.9251 34.059 21.1759 34.0528C20.4268 34.0467 19.6839 34.1898 18.9907 34.4738C18.2974 34.7578 17.6677 35.177 17.1382 35.707C16.6087 36.237 16.1901 36.8672 15.9067 37.5607C15.6233 38.2542 15.4809 38.9972 15.4878 39.7463C15.4947 40.4955 15.6506 41.2357 15.9467 41.9239C16.2427 42.6121 16.6728 43.2345 17.2119 43.7547L37.1545 63.6973Z" fill="#FF7601"/>
</svg>
