<svg width="35" height="35" viewBox="0 0 35 35" fill="none" xmlns="http://www.w3.org/2000/svg">
<path fill-rule="evenodd" clip-rule="evenodd" d="M30.9049 7.9698C31.1782 8.24327 31.3318 8.61414 31.3318 9.00084C31.3318 9.38754 31.1782 9.7584 30.9049 10.0319L14.5103 26.4279C14.3613 26.577 14.1844 26.6952 13.9897 26.7759C13.7951 26.8565 13.5864 26.898 13.3757 26.898C13.165 26.898 12.9563 26.8565 12.7616 26.7759C12.5669 26.6952 12.3901 26.577 12.2411 26.4279L4.09485 18.2817C3.95936 18.1462 3.85188 17.9853 3.77855 17.8083C3.70522 17.6313 3.66748 17.4415 3.66748 17.2499C3.66748 17.0583 3.70522 16.8685 3.77855 16.6915C3.85188 16.5145 3.95936 16.3536 4.09485 16.2181C4.23035 16.0826 4.3912 15.9752 4.56823 15.9018C4.74527 15.8285 4.93501 15.7908 5.12663 15.7908C5.31824 15.7908 5.50798 15.8285 5.68502 15.9018C5.86205 15.9752 6.0229 16.0826 6.1584 16.2181L13.3771 23.4369L28.8413 7.9698C29.1148 7.6964 29.4857 7.54282 29.8724 7.54282C30.2591 7.54282 30.6314 7.6964 30.9049 7.9698Z" fill="white"/>
</svg>
