<svg width="32" height="32" viewBox="0 0 32 32" fill="none" xmlns="http://www.w3.org/2000/svg">
<g clip-path="url(#clip0_37_238)">
<path d="M9.21875 1.46875C9.21875 0.935937 8.78281 0.5 8.25 0.5C7.71719 0.5 7.28125 0.935937 7.28125 1.46875V2.4375H6.3125C5.77969 2.4375 5.34375 2.87344 5.34375 3.40625C5.34375 3.93906 5.77969 4.375 6.3125 4.375H7.28125V6.3125H4.14492C3.47285 6.3125 2.92188 6.86348 2.92188 7.53555C2.92188 7.68691 2.95215 7.83223 3.00059 7.97754L4.96836 13.0938H4.85938C4.0541 13.0938 3.40625 13.7416 3.40625 14.5469C3.40625 15.3521 4.0541 16 4.85938 16H5.10156L4.13281 23.75H12.3672L11.3984 16H11.6406C12.4459 16 13.0938 15.3521 13.0938 14.5469C13.0938 13.7416 12.4459 13.0938 11.6406 13.0938H11.5316L13.4994 7.97754C13.5539 7.83828 13.5781 7.68691 13.5781 7.53555C13.5781 6.85742 13.0271 6.3125 12.3551 6.3125H9.21875V4.375H10.1875C10.7203 4.375 11.1562 3.93906 11.1562 3.40625C11.1562 2.87344 10.7203 2.4375 10.1875 2.4375H9.21875V1.46875ZM3.40625 25.6875L0.790625 29.175C0.60293 29.4293 0.5 29.732 0.5 30.0469C0.5 30.8521 1.14785 31.5 1.95312 31.5H14.5469C15.3521 31.5 16 30.8521 16 30.0469C16 29.732 15.8971 29.4293 15.7094 29.175L13.0938 25.6875H3.40625ZM20.8438 25.6875L18.2281 29.175C18.0404 29.4293 17.9375 29.732 17.9375 30.0469C17.9375 30.8521 18.5854 31.5 19.3906 31.5H30.0469C30.8521 31.5 31.5 30.8521 31.5 30.0469C31.5 29.732 31.3971 29.4293 31.2094 29.175L28.5938 25.6875H20.8438ZM18.9062 13.0938V16.2361C18.9062 16.7084 19.0758 17.1625 19.3906 17.5137L21.0375 19.3906L20.9043 23.75H28.5029L28.3031 19.3906L30.0166 17.5258C30.3436 17.1686 30.5312 16.7023 30.5312 16.2119V13.0938C30.5312 12.5609 30.0953 12.125 29.5625 12.125H28.5938C28.0609 12.125 27.625 12.5609 27.625 13.0938V14.0625H26.1719V13.0938C26.1719 12.5609 25.7359 12.125 25.2031 12.125H24.2344C23.7016 12.125 23.2656 12.5609 23.2656 13.0938V14.0625H21.8125V13.0938C21.8125 12.5609 21.3766 12.125 20.8438 12.125H19.875C19.3422 12.125 18.9062 12.5609 18.9062 13.0938ZM23.75 18.9062C23.75 18.3734 24.1859 17.9375 24.7188 17.9375C25.2516 17.9375 25.6875 18.3734 25.6875 18.9062V20.8438H23.75V18.9062Z" fill="#36ACA7"/>
</g>
<defs>
<clipPath id="clip0_37_238">
<rect width="31" height="31" fill="white" transform="translate(0.5 0.5)"/>
</clipPath>
</defs>
</svg>
