<svg width="102" height="103" viewBox="0 0 102 103" fill="none" xmlns="http://www.w3.org/2000/svg">
<path d="M17 34.7036H34V17.7036C34 15.4492 34.8955 13.2872 36.4896 11.6931C38.0837 10.0991 40.2457 9.20355 42.5 9.20355H59.5C61.7543 9.20355 63.9163 10.0991 65.5104 11.6931C67.1045 13.2872 68 15.4492 68 17.7036V34.7036H85C87.2543 34.7036 89.4163 35.5991 91.0104 37.1931C92.6045 38.7872 93.5 40.9492 93.5 43.2036V60.2036C93.5 62.4579 92.6045 64.6199 91.0104 66.214C89.4163 67.808 87.2543 68.7036 85 68.7036H68V85.7036C68 87.9579 67.1045 90.1199 65.5104 91.714C63.9163 93.308 61.7543 94.2036 59.5 94.2036H42.5C40.2457 94.2036 38.0837 93.308 36.4896 91.714C34.8955 90.1199 34 87.9579 34 85.7036V68.7036H17C14.7457 68.7036 12.5837 67.808 10.9896 66.214C9.39553 64.6199 8.5 62.4579 8.5 60.2036V43.2036C8.5 40.9492 9.39553 38.7872 10.9896 37.1931C12.5837 35.5991 14.7457 34.7036 17 34.7036Z" fill="white"/>
</svg>
