<svg width="24" height="25" viewBox="0 0 24 25" fill="none" xmlns="http://www.w3.org/2000/svg">
<path d="M12.0001 16.2036C11.0718 16.2036 10.1816 15.8348 9.52521 15.1784C8.86883 14.5221 8.50008 13.6318 8.50008 12.7036C8.50008 11.7753 8.86883 10.8851 9.52521 10.2287C10.1816 9.5723 11.0718 9.20355 12.0001 9.20355C12.9283 9.20355 13.8186 9.5723 14.475 10.2287C15.1313 10.8851 15.5001 11.7753 15.5001 12.7036C15.5001 13.6318 15.1313 14.5221 14.475 15.1784C13.8186 15.8348 12.9283 16.2036 12.0001 16.2036ZM19.4301 13.6736C19.4701 13.3536 19.5001 13.0336 19.5001 12.7036C19.5001 12.3736 19.4701 12.0436 19.4301 11.7036L21.5401 10.0736C21.7301 9.92355 21.7801 9.65355 21.6601 9.43355L19.6601 5.97355C19.5401 5.75355 19.2701 5.66355 19.0501 5.75355L16.5601 6.75355C16.0401 6.36355 15.5001 6.02355 14.8701 5.77355L14.5001 3.12355C14.4798 3.00577 14.4184 2.89898 14.3269 2.82211C14.2354 2.74523 14.1196 2.70323 14.0001 2.70355H10.0001C9.75008 2.70355 9.54008 2.88355 9.50008 3.12355L9.13008 5.77355C8.50008 6.02355 7.96008 6.36355 7.44008 6.75355L4.95008 5.75355C4.73008 5.66355 4.46008 5.75355 4.34008 5.97355L2.34008 9.43355C2.21008 9.65355 2.27008 9.92355 2.46008 10.0736L4.57008 11.7036C4.53008 12.0436 4.50008 12.3736 4.50008 12.7036C4.50008 13.0336 4.53008 13.3536 4.57008 13.6736L2.46008 15.3336C2.27008 15.4836 2.21008 15.7536 2.34008 15.9736L4.34008 19.4336C4.46008 19.6536 4.73008 19.7336 4.95008 19.6536L7.44008 18.6436C7.96008 19.0436 8.50008 19.3836 9.13008 19.6336L9.50008 22.2836C9.54008 22.5236 9.75008 22.7036 10.0001 22.7036H14.0001C14.2501 22.7036 14.4601 22.5236 14.5001 22.2836L14.8701 19.6336C15.5001 19.3736 16.0401 19.0436 16.5601 18.6436L19.0501 19.6536C19.2701 19.7336 19.5401 19.6536 19.6601 19.4336L21.6601 15.9736C21.7801 15.7536 21.7301 15.4836 21.5401 15.3336L19.4301 13.6736Z" fill="white"/>
</svg>
