<svg width="158" height="158" viewBox="0 0 158 158" fill="none" xmlns="http://www.w3.org/2000/svg">
<path fill-rule="evenodd" clip-rule="evenodd" d="M79 92.9698L113.911 127.881C115.764 129.734 118.276 130.774 120.896 130.774C123.516 130.774 126.029 129.734 127.881 127.881C129.734 126.029 130.774 123.516 130.774 120.896C130.774 118.276 129.734 115.764 127.881 113.911L92.9567 79L127.875 44.0886C128.791 43.1713 129.519 42.0824 130.015 40.8841C130.511 39.6858 130.766 38.4015 130.766 37.1046C130.765 35.8077 130.51 34.5236 130.013 33.3255C129.516 32.1274 128.789 31.0389 127.871 30.122C126.954 29.2052 125.865 28.478 124.667 27.982C123.469 27.486 122.184 27.2308 120.887 27.2311C119.59 27.2314 118.306 27.4872 117.108 27.9838C115.91 28.4803 114.822 29.2081 113.905 30.1253L79 65.0367L44.0886 30.1253C43.1781 29.1817 42.0888 28.4289 40.8842 27.9108C39.6797 27.3927 38.384 27.1197 37.0729 27.1077C35.7617 27.0957 34.4612 27.3449 33.2474 27.8409C32.0336 28.3369 30.9307 29.0696 30.003 29.9963C29.0754 30.9231 28.3416 32.0253 27.8445 33.2387C27.3475 34.452 27.097 35.7522 27.1078 37.0634C27.1185 38.3746 27.3903 39.6705 27.9073 40.8756C28.4242 42.0806 29.176 43.1706 30.1187 44.082L65.0433 79L30.1253 113.918C29.1826 114.829 28.4308 115.919 27.9139 117.124C27.3969 118.329 27.1251 119.625 27.1143 120.937C27.1036 122.248 27.354 123.548 27.8511 124.761C28.3482 125.975 29.082 127.077 30.0096 128.004C30.9372 128.93 32.0401 129.663 33.254 130.159C34.4678 130.655 35.7683 130.904 37.0794 130.892C38.3906 130.88 39.6863 130.607 40.8908 130.089C42.0954 129.571 43.1847 128.818 44.0952 127.875L79 92.9698Z" fill="#F5F7F8"/>
</svg>
