<svg width="158" height="158" viewBox="0 0 158 158" fill="none" xmlns="http://www.w3.org/2000/svg">
<path d="M79 144.833C69.8931 144.833 61.3348 143.104 53.325 139.646C45.3153 136.187 38.3479 131.498 32.4229 125.577C26.4979 119.656 21.8084 112.689 18.3544 104.675C14.9003 96.6608 13.1711 88.1025 13.1667 79C13.1623 69.8974 14.8915 61.3391 18.3544 53.325C21.8172 45.3108 26.5067 38.3435 32.4229 32.4229C38.3392 26.5023 45.3065 21.8127 53.325 18.3543C61.3435 14.8958 69.9019 13.1666 79 13.1666C88.0982 13.1666 96.6565 14.8958 104.675 18.3543C112.694 21.8127 119.661 26.5023 125.577 32.4229C131.493 38.3435 136.185 45.3108 139.652 53.325C143.119 61.3391 144.847 69.8974 144.833 79C144.82 88.1025 143.091 96.6608 139.646 104.675C136.2 112.689 131.511 119.656 125.577 125.577C119.643 131.498 112.676 136.189 104.675 139.652C96.6741 143.115 88.1157 144.842 79 144.833ZM79 131.667C93.7028 131.667 106.156 126.565 116.36 116.36C126.565 106.156 131.667 93.7027 131.667 79C131.667 64.2972 126.565 51.8437 116.36 41.6395C106.156 31.4354 93.7028 26.3333 79 26.3333C64.2972 26.3333 51.8438 31.4354 41.6396 41.6395C31.4354 51.8437 26.3334 64.2972 26.3334 79C26.3334 93.7027 31.4354 106.156 41.6396 116.36C51.8438 126.565 64.2972 131.667 79 131.667Z" fill="#F5F7F8"/>
</svg>
