<svg width="25" height="25" viewBox="0 0 25 25" fill="none" xmlns="http://www.w3.org/2000/svg">
<path d="M12.5 2.5C10.6435 2.5 8.86301 3.2375 7.55025 4.55025C6.2375 5.86301 5.5 7.64348 5.5 9.5C5.5 11.88 6.69 13.97 8.5 15.24V17.5C8.5 17.7652 8.60536 18.0196 8.79289 18.2071C8.98043 18.3946 9.23478 18.5 9.5 18.5H15.5C15.7652 18.5 16.0196 18.3946 16.2071 18.2071C16.3946 18.0196 16.5 17.7652 16.5 17.5V15.24C18.31 13.97 19.5 11.88 19.5 9.5C19.5 7.64348 18.7625 5.86301 17.4497 4.55025C16.137 3.2375 14.3565 2.5 12.5 2.5ZM9.5 21.5C9.5 21.7652 9.60536 22.0196 9.79289 22.2071C9.98043 22.3946 10.2348 22.5 10.5 22.5H14.5C14.7652 22.5 15.0196 22.3946 15.2071 22.2071C15.3946 22.0196 15.5 21.7652 15.5 21.5V20.5H9.5V21.5Z" fill="#ECC94B"/>
</svg>
