<svg width="103" height="103" viewBox="0 0 103 103" fill="none" xmlns="http://www.w3.org/2000/svg">
<path d="M51.5 5.68402C49.1903 5.68402 46.918 8.23402 46.918 11.8598C46.918 15.4856 49.1903 18.0356 51.5 18.0356C53.8097 18.0356 56.082 15.4856 56.082 11.8598C56.082 8.23402 53.8097 5.68402 51.5 5.68402ZM30.791 6.2767L27.584 7.88041C30.5906 13.8938 37.8179 19.198 43.9574 22.7107L46.7853 59.4731H49.707V38.9536H53.293V59.4731H56.2147L59.0426 22.7107C65.1821 19.198 72.4094 13.8938 75.416 7.88041L72.209 6.2767C68.2425 12.2333 63.2659 16.0679 57.9979 17.7856C56.5424 20.0836 54.2393 21.6215 51.5 21.6215C48.7607 21.6215 46.4578 20.0836 45.0021 17.7854C39.7341 16.0681 34.7575 12.2333 30.791 6.2767ZM34.168 63.059V82.184H5.48047V97.7231H97.5195V91.7465H68.832V63.059H34.168Z" fill="white"/>
</svg>
