<svg width="24" height="26" viewBox="0 0 24 26" fill="none" xmlns="http://www.w3.org/2000/svg">
<path d="M17 9.12911C17.0012 7.78009 16.5822 6.46841 15.8082 5.3978C15.0342 4.32719 13.9483 3.55759 12.7194 3.20853C11.4905 2.85948 10.1873 2.95051 9.01219 3.46748C7.83708 3.98445 6.85586 4.89844 6.22095 6.06746C6.00215 6.46952 5.94295 6.94727 6.05635 7.39561C6.16975 7.84396 6.44648 8.22617 6.82565 8.45817C7.20482 8.69017 7.65538 8.75296 8.07821 8.63271C8.50104 8.51246 8.8615 8.21903 9.08029 7.81697C9.29765 7.41779 9.61032 7.08635 9.98686 6.856C10.3634 6.62566 10.7905 6.50454 11.2252 6.50484C11.8816 6.50484 12.5111 6.78132 12.9752 7.27347C13.4394 7.76562 13.7001 8.43311 13.7001 9.12911C13.7001 9.82511 13.4394 10.4926 12.9752 10.9848C12.5111 11.4769 11.8816 11.7534 11.2252 11.7534H11.2203C11.1139 11.7653 11.0089 11.7882 10.9068 11.8216C10.7959 11.8332 10.6865 11.8566 10.5801 11.8916C10.4896 11.9442 10.404 12.0057 10.3243 12.0753C10.2295 12.13 10.14 12.1945 10.0571 12.2677C9.98283 12.3618 9.91812 12.4638 9.86401 12.5722C9.80388 12.6511 9.75033 12.7354 9.70397 12.8241C9.66774 12.9446 9.64395 13.069 9.63302 13.195C9.60511 13.2956 9.58578 13.3986 9.57527 13.5029V15.2524L9.57857 15.2717V16.1307C9.57945 16.5941 9.75367 17.0382 10.063 17.3655C10.3723 17.6929 10.7915 17.8767 11.2285 17.8767H11.2335C11.4501 17.8762 11.6646 17.8305 11.8646 17.7422C12.0646 17.6538 12.2463 17.5246 12.3992 17.3618C12.5521 17.199 12.6733 17.0059 12.7558 16.7935C12.8383 16.581 12.8805 16.3534 12.8801 16.1237L12.8768 14.9655C14.0648 14.5925 15.1076 13.8231 15.8504 12.7717C16.5932 11.7203 16.9963 10.4428 17 9.12911ZM10.0653 21.0083C9.83362 21.252 9.67527 21.563 9.61029 21.9021C9.54531 22.2412 9.57661 22.5931 9.70023 22.9133C9.82385 23.2335 10.0342 23.5077 10.3048 23.7011C10.5754 23.8945 10.894 23.9985 11.2203 24C11.6574 23.9953 12.0764 23.8138 12.3917 23.4926C12.6981 23.1608 12.8696 22.7149 12.8696 22.2505C12.8696 21.7861 12.6981 21.3402 12.3917 21.0083C12.0759 20.6962 11.6602 20.5227 11.2285 20.5227C10.7968 20.5227 10.3811 20.6962 10.0653 21.0083Z" fill="white"/>
</svg>
