<svg width="35" height="36" viewBox="0 0 35 36" fill="none" xmlns="http://www.w3.org/2000/svg">
<path d="M11.6667 31.125V28.2083H5.83341C5.03133 28.2083 4.34494 27.923 3.77425 27.3523C3.20355 26.7816 2.91772 26.0947 2.91675 25.2917V7.79167C2.91675 6.98958 3.20258 6.30319 3.77425 5.7325C4.34591 5.16181 5.0323 4.87597 5.83341 4.875H29.1667C29.9688 4.875 30.6557 5.16083 31.2274 5.7325C31.799 6.30417 32.0844 6.99056 32.0834 7.79167V25.2917C32.0834 26.0938 31.7981 26.7806 31.2274 27.3523C30.6567 27.924 29.9698 28.2093 29.1667 28.2083H23.3334V31.125H11.6667ZM5.83341 25.2917H29.1667V7.79167H5.83341V25.2917Z" fill="#ECC94B"/>
</svg>
